<svg
    xmlns="http://www.w3.org/2000/svg" xmlns:xlink="http://www.w3.org/1999/xlink" aria-hidden="true" role="img" class="iconify iconify--logos"  preserveAspectRatio="xMidYMid meet" 
    viewBox="0 0 561.76 512.69"
  >
    <g fill="#003246">
      {/* Directly applying the fill color */}
      <path
        d="M254.5,305.22l6.4,3.39c27.47-14.45,53.76-30.41,78.83-48.64c12.62-9.63,34.38-25.76,45.67-43.05h-8.33
		  c-13.73,12.19-34.17,21.94-46.34,27.98c-22.55,10.52-46.2,19.56-69.91,27.2c-10.38-3.31-20.97-7.05-31.12-10.89
		  c-19.1-7.52-62.66-24.18-83.97-44.29h-7.88c0.16,0.26,0.3,0.51,0.47,0.75C161.25,251.57,218.32,285.23,254.5,305.22z"
      />
      <path
        d="M224.13,342.95c1.69,1.28,3.39,2.58,5.12,3.86c18.93,4.94,36.67,7.19,52.9,7.64
		  c5.28-3.82,10.48-7.68,15.52-11.5c44.79-34.55,125-97.67,149.73-151.69c0.7-1.52-0.45-3.24-2.12-3.24c-0.81,0-1.56,0.43-1.97,1.13
		  c-1.28,2.14-2.65,4.22-4.07,6.24c-19.71,27.16-46.63,48.07-73.38,68.02c-33.46,24.26-68.87,46.38-104.97,66.49
		  c-6.77-3.76-13.57-7.68-20.28-11.6c-38.65-23.14-132.54-79.69-161.83-129.09c-0.44-0.75-1.23-1.2-2.1-1.2
		  c-1.82,0-2.98,1.88-2.22,3.53C99.35,245.54,179.38,308.46,224.13,342.95z"
      />
      <polygon
        points="248.48,174.65 262.39,249.94 274.58,174.91 350.08,161.74 274.63,148.87 262.39,73.54 248.42,149.13 
		  173.16,161.74"
      />
      <path
        d="M375.42,362.74c1.86-1.38,0.14-4.26-1.97-3.32c-17.05,7.61-50.19,17.28-91.3,16.15
		  c-16.23-0.45-33.97-2.7-52.9-7.64c-8-2.07-16.21-4.63-24.62-7.74c-76.16-28.15-139.76-5-169.81,10.48c-3.3,1.7-1.43,6.7,2.19,5.87
		  c99.89-22.94,98.99,7.53,182.78,15.28C289.97,398.33,350.47,381.21,375.42,362.74z"
      />
      <path
        d="M527.87,396.93c-22.81-16.07-80.28-45.72-159.16-9.91c-89.55,40.65-156.84,25.82-185.87,15.3
		  c-2.57-0.93-4.39,2.52-2.17,4.11c23.05,16.6,74.13,40.93,142.89,29.97c84.88-13.53,106.78-75.14,202.58-36.31
		  C528.14,400.92,529.64,398.18,527.87,396.93z"
      />
    </g>
  </svg>