<svg width="125" height="125" viewBox="0 0 125 125" fill="none" xmlns="http://www.w3.org/2000/svg">
<path fill-rule="evenodd" clip-rule="evenodd" d="M67.4344 55.2967C69.7988 55.0443 104.625 54.8373 124.752 54.9387C118.959 20.3463 94.0956 4.01372 66.5498 0.832329L68.9893 15.8211C49.0656 2.86822 33.4717 7.82552 22.8029 15.6454C3.63082 29.6978 -1.1577 55.0058 1.24452 69.7654C6.91741 104.62 37.9284 129.387 72.7834 123.714C97.7665 119.648 116.582 104.181 123.146 82.9099C117.288 81.7382 107.168 79.9464 104.987 81.9756C104.202 82.7058 103.263 83.7424 102.144 84.9781C95.7402 92.0472 83.4354 105.631 60.3318 105.631C35.4559 105.63 19.8902 77.3524 20.9635 59.5045C21.1235 56.8445 36.8735 56.1464 37.0577 57.2613C39.2007 70.2327 48.857 82.7994 58.5113 84.1785C66.0202 85.2512 76.6271 80.7646 81.0379 75.597C81.317 75.27 81.6013 74.9391 81.8865 74.607C84.7744 71.2455 87.7586 67.7717 86.3736 67.1939C84.073 67.1169 79.8838 67.2777 75.6544 67.4401L75.6543 67.4401C70.0746 67.6543 64.4251 67.8711 62.9499 67.5483C59.7083 66.839 59.1362 58.5848 60.3317 57.2612C61.5272 55.9376 63.9563 55.6679 67.4344 55.2967ZM105.691 42.3439C105.691 42.3439 106.598 25.1807 93.906 25.1807C81.2139 25.1807 82.1205 42.3439 82.1205 42.3439L105.691 42.3439Z" fill="url(#paint0_linear_67_461)"/>
<defs>
<linearGradient id="paint0_linear_67_461" x1="10.2358" y1="15.526" x2="96.0514" y2="136.741" gradientUnits="userSpaceOnUse">
<stop offset="0.335774" stop-color="#2BBFB0"/>
<stop offset="1" stop-color="#150A30"/>
</linearGradient>
</defs>
</svg>
