<svg width="482" height="119" viewBox="0 0 482 119" fill="none" xmlns="http://www.w3.org/2000/svg">
<path d="M352.653 114.213C346.415 114.213 341.167 112.876 336.91 110.203C332.652 107.43 329.434 103.123 327.256 97.2814C325.176 91.3405 324.137 83.6669 324.137 74.2606C324.137 64.3592 325.077 56.3885 326.959 50.3487C328.84 44.2098 331.959 39.7542 336.315 36.9818C340.771 34.1104 346.712 32.6746 354.138 32.6746C358.099 32.6746 362.01 33.0707 365.871 33.8628C369.733 34.6549 373.099 35.5956 375.971 36.6847V0H394.387V113.322H379.09L375.971 105.599C374.386 107.084 372.258 108.47 369.584 109.757C367.01 111.044 364.237 112.133 361.267 113.025C358.396 113.817 355.524 114.213 352.653 114.213ZM358.891 99.3607C362.455 99.3607 365.673 98.8161 368.545 97.7269C371.416 96.5388 373.891 95.3506 375.971 94.1624V49.9031C373.495 49.012 370.97 48.2199 368.396 47.5268C365.822 46.8337 363 46.4871 359.93 46.4871C355.772 46.4871 352.405 47.2792 349.831 48.8635C347.257 50.3487 345.375 53.0221 344.187 56.8836C343.098 60.7452 342.553 66.2404 342.553 73.3694C342.553 80.0034 343.098 85.2511 344.187 89.1127C345.276 92.8752 347.009 95.5486 349.385 97.1328C351.861 98.6181 355.029 99.3607 358.891 99.3607Z" fill="#150A30"/>
<path d="M187.57 113.322V33.7146H202.571L205.987 42.0318C209.65 39.4574 213.661 37.2296 218.017 35.3484C222.473 33.3681 227.721 32.3779 233.76 32.3779C238.711 32.3779 242.87 33.4671 246.236 35.6454C249.702 37.7247 252.276 40.4476 253.959 43.8141C256.237 42.0318 258.96 40.2991 262.128 38.6158C265.395 36.8336 268.861 35.3483 272.524 34.1602C276.188 32.972 279.802 32.3779 283.366 32.3779C289.505 32.3779 294.407 33.6156 298.07 36.0909C301.833 38.4673 304.506 41.8338 306.09 46.1904C307.674 50.448 308.467 55.3987 308.467 61.0425V113.322H290.05V62.5277C290.05 59.6563 289.505 57.2305 288.416 55.2502C287.327 53.2699 285.792 51.7352 283.812 50.646C281.931 49.5569 279.604 49.0123 276.832 49.0123C273.267 49.0123 269.653 49.7054 265.99 51.0916C262.425 52.4778 259.158 54.161 256.187 56.1413C256.583 57.1315 256.831 58.2206 256.93 59.4088C257.128 60.5969 257.227 61.7851 257.227 62.9733V113.322H238.81V62.5277C238.81 59.6563 238.266 57.2305 237.176 55.2502C236.087 53.2699 234.553 51.7352 232.572 50.646C230.691 49.5569 228.364 49.0123 225.592 49.0123C223.017 49.0123 220.592 49.2598 218.314 49.7549C216.136 50.25 214.057 50.9926 212.076 51.9827C210.096 52.9729 208.066 54.161 205.987 55.5472V113.322H187.57Z" fill="#150A30"/>
<path d="M27.7735 113.32L0 33.7129H18.8622L38.764 96.2403L59.1114 33.7129H77.8251L48.8635 113.32H27.7735Z" fill="#150A30"/>
<path d="M446.055 115.954C439.817 115.954 434.421 115.31 429.867 114.023C425.312 112.736 421.599 110.558 418.727 107.488C415.856 104.419 413.727 100.26 412.341 95.0126C410.955 89.7648 410.262 83.1804 410.262 75.2593C410.262 67.0411 410.955 60.3081 412.341 55.0604C413.727 49.7136 415.856 45.555 418.727 42.5846C421.698 39.5152 425.46 37.4359 430.015 36.3467C434.57 35.1585 439.916 34.5645 446.055 34.5645C452.392 34.5645 457.838 35.208 462.393 36.4952C466.947 37.6834 470.66 39.7627 473.532 42.7331C476.403 45.7035 478.532 49.8621 479.918 55.2089C481.304 60.4567 481.997 67.1401 481.997 75.2593C481.997 83.2794 481.304 89.9629 479.918 95.3096C478.631 100.557 476.552 104.716 473.68 107.785C470.809 110.756 467.096 112.885 462.541 114.172C457.987 115.36 452.491 115.954 446.055 115.954ZM446.055 101.25C449.125 101.25 451.749 101.003 453.927 100.508C456.105 99.9138 457.888 98.7751 459.274 97.0919C460.759 95.3096 461.848 92.6857 462.541 89.2202C463.234 85.6557 463.581 80.9526 463.581 75.1107C463.581 69.3679 463.234 64.7638 462.541 61.2983C461.848 57.8328 460.759 55.2584 459.274 53.5752C457.888 51.7929 456.105 50.6542 453.927 50.1592C451.749 49.5651 449.125 49.2681 446.055 49.2681C443.085 49.2681 440.511 49.5651 438.332 50.1592C436.154 50.6542 434.372 51.7929 432.985 53.5752C431.599 55.2584 430.51 57.8328 429.718 61.2983C429.025 64.7638 428.678 69.3679 428.678 75.1107C428.678 80.9526 429.025 85.6557 429.718 89.2202C430.51 92.6857 431.599 95.3096 432.985 97.0919C434.372 98.7751 436.154 99.9138 438.332 100.508C440.511 101.003 443.085 101.25 446.055 101.25Z" fill="#150A30"/>
<path fill-rule="evenodd" clip-rule="evenodd" d="M131.546 65.4541C133.162 65.2816 156.962 65.1402 170.716 65.2095C166.757 41.5708 149.767 30.4099 130.944 28.2359L132.611 38.4785C118.996 29.6272 108.34 33.0147 101.049 38.3584C87.9479 47.9611 84.6757 65.2553 86.3172 75.3413C90.1938 99.1594 111.385 116.084 135.203 112.207C152.275 109.429 165.133 98.8591 169.619 84.3239C165.616 83.5232 158.698 82.2983 157.208 83.6851C156.671 84.1841 156.03 84.8925 155.265 85.7369C150.889 90.5675 142.481 99.8502 126.693 99.8497C109.694 99.8492 99.0571 80.5258 99.7905 68.3295C99.8998 66.5118 110.663 66.0348 110.788 66.7966C112.253 75.6606 118.852 84.248 125.449 85.1905C130.58 85.9235 137.828 82.8576 140.842 79.3263C141.033 79.1029 141.227 78.8767 141.422 78.6498C143.396 76.3527 145.435 73.9789 144.488 73.584C142.916 73.5314 140.054 73.6413 137.163 73.7523L137.163 73.7523L137.163 73.7523C133.35 73.8986 129.49 74.0468 128.482 73.8262C126.267 73.3415 125.876 67.701 126.693 66.7966C127.51 65.8921 129.17 65.7078 131.546 65.4541ZM157.693 56.6034C157.693 56.6034 158.313 44.875 149.639 44.875C140.966 44.875 141.586 56.6034 141.586 56.6034L157.693 56.6034Z" fill="url(#paint0_linear_67_539)"/>
<defs>
<linearGradient id="paint0_linear_67_539" x1="92.4614" y1="38.2769" x2="151.103" y2="121.109" gradientUnits="userSpaceOnUse">
<stop offset="0.335774" stop-color="#2BBFB0"/>
<stop offset="1" stop-color="#150A30"/>
</linearGradient>
</defs>
</svg>
