<svg width="482" height="120" viewBox="0 0 482 120" fill="none" xmlns="http://www.w3.org/2000/svg">
<path d="M352.653 114.213C346.415 114.213 341.167 112.876 336.91 110.203C332.652 107.43 329.434 103.123 327.256 97.2814C325.176 91.3405 324.137 83.6669 324.137 74.2606C324.137 64.3592 325.077 56.3885 326.959 50.3487C328.84 44.2098 331.959 39.7542 336.315 36.9818C340.771 34.1104 346.712 32.6746 354.138 32.6746C358.099 32.6746 362.01 33.0707 365.871 33.8628C369.733 34.6549 373.099 35.5956 375.971 36.6847V0H394.387V113.322H379.09L375.971 105.599C374.386 107.084 372.258 108.47 369.584 109.757C367.01 111.044 364.237 112.133 361.267 113.025C358.396 113.817 355.524 114.213 352.653 114.213ZM358.891 99.3607C362.455 99.3607 365.673 98.8161 368.545 97.7269C371.416 96.5388 373.891 95.3506 375.971 94.1624V49.9031C373.495 49.012 370.97 48.2199 368.396 47.5268C365.822 46.8337 363 46.4871 359.93 46.4871C355.772 46.4871 352.405 47.2792 349.831 48.8635C347.257 50.3487 345.375 53.0221 344.187 56.8836C343.098 60.7452 342.553 66.2404 342.553 73.3694C342.553 80.0034 343.098 85.2511 344.187 89.1127C345.276 92.8752 347.009 95.5486 349.385 97.1328C351.861 98.6181 355.029 99.3607 358.891 99.3607Z" fill="white"/>
<path d="M187.57 113.321V33.7136H202.571L205.987 42.0308C209.65 39.4565 213.661 37.2286 218.017 35.3474C222.473 33.3671 227.721 32.377 233.76 32.377C238.711 32.377 242.87 33.4661 246.236 35.6444C249.702 37.7237 252.276 40.4466 253.959 43.8131C256.237 42.0308 258.96 40.2981 262.128 38.6148C265.395 36.8326 268.861 35.3474 272.524 34.1592C276.188 32.971 279.802 32.377 283.366 32.377C289.505 32.377 294.407 33.6146 298.07 36.09C301.833 38.4663 304.506 41.8328 306.09 46.1894C307.674 50.447 308.467 55.3977 308.467 61.0415V113.321H290.05V62.5267C290.05 59.6553 289.505 57.2295 288.416 55.2492C287.327 53.2689 285.792 51.7342 283.812 50.6451C281.931 49.5559 279.604 49.0113 276.832 49.0113C273.267 49.0113 269.653 49.7044 265.99 51.0906C262.425 52.4768 259.158 54.1601 256.187 56.1403C256.583 57.1305 256.831 58.2196 256.93 59.4078C257.128 60.596 257.227 61.7841 257.227 62.9723V113.321H238.81V62.5267C238.81 59.6553 238.266 57.2295 237.176 55.2492C236.087 53.2689 234.553 51.7342 232.572 50.6451C230.691 49.5559 228.364 49.0113 225.592 49.0113C223.017 49.0113 220.592 49.2589 218.314 49.7539C216.136 50.249 214.057 50.9916 212.076 51.9817C210.096 52.9719 208.066 54.1601 205.987 55.5463V113.321H187.57Z" fill="white"/>
<path d="M27.7735 113.32L0 33.7129H18.8622L38.764 96.2403L59.1114 33.7129H77.8251L48.8635 113.32H27.7735Z" fill="white"/>
<path d="M446.055 115.954C439.817 115.954 434.421 115.31 429.867 114.023C425.312 112.736 421.599 110.558 418.727 107.488C415.856 104.419 413.727 100.26 412.341 95.0126C410.955 89.7648 410.262 83.1804 410.262 75.2593C410.262 67.0411 410.955 60.3081 412.341 55.0604C413.727 49.7136 415.856 45.555 418.727 42.5846C421.698 39.5152 425.46 37.4359 430.015 36.3467C434.57 35.1585 439.916 34.5645 446.055 34.5645C452.392 34.5645 457.838 35.208 462.393 36.4952C466.947 37.6834 470.66 39.7627 473.532 42.7331C476.403 45.7035 478.532 49.8621 479.918 55.2089C481.304 60.4567 481.997 67.1401 481.997 75.2593C481.997 83.2794 481.304 89.9629 479.918 95.3096C478.631 100.557 476.552 104.716 473.68 107.785C470.809 110.756 467.096 112.885 462.541 114.172C457.987 115.36 452.491 115.954 446.055 115.954ZM446.055 101.25C449.125 101.25 451.749 101.003 453.927 100.508C456.105 99.9138 457.888 98.7751 459.274 97.0919C460.759 95.3096 461.848 92.6857 462.541 89.2202C463.234 85.6557 463.581 80.9526 463.581 75.1107C463.581 69.3679 463.234 64.7638 462.541 61.2983C461.848 57.8328 460.759 55.2584 459.274 53.5752C457.888 51.7929 456.105 50.6542 453.927 50.1592C451.749 49.5651 449.125 49.2681 446.055 49.2681C443.085 49.2681 440.511 49.5651 438.332 50.1592C436.154 50.6542 434.372 51.7929 432.985 53.5752C431.599 55.2584 430.51 57.8328 429.718 61.2983C429.025 64.7638 428.678 69.3679 428.678 75.1107C428.678 80.9526 429.025 85.6557 429.718 89.2202C430.51 92.6857 431.599 95.3096 432.985 97.0919C434.372 98.7751 436.154 99.9138 438.332 100.508C440.511 101.003 443.085 101.25 446.055 101.25Z" fill="white"/>
<path fill-rule="evenodd" clip-rule="evenodd" d="M131.548 65.9458C133.164 65.7733 156.961 65.6319 170.715 65.7012C166.756 42.0629 149.766 30.9022 130.943 28.7282L132.61 38.9707C118.995 30.1194 108.339 33.5069 101.049 38.8506C87.9479 48.4532 84.6756 65.7473 86.3172 75.8332C90.1937 99.6511 111.385 116.575 135.203 112.699C152.275 109.92 165.132 99.3505 169.618 84.8151C165.615 84.0144 158.699 82.7901 157.209 84.1767C156.673 84.6756 156.031 85.384 155.266 86.2284C150.891 91.059 142.482 100.342 126.694 100.341C109.696 100.341 99.0589 81.0174 99.7923 68.8211C99.9016 67.0035 110.664 66.5265 110.79 67.2883C112.255 76.1522 118.853 84.7396 125.45 85.682C130.582 86.415 137.83 83.3492 140.844 79.8179C141.034 79.5944 141.229 79.3683 141.424 79.1414C143.397 76.8443 145.436 74.4705 144.49 74.0756C142.918 74.0231 140.055 74.133 137.165 74.2439L137.165 74.2439C133.352 74.3903 129.492 74.5384 128.483 74.3179C126.268 73.8331 125.877 68.1927 126.694 67.2882C127.511 66.3837 129.171 66.1994 131.548 65.9458ZM157.688 57.0944C157.688 57.0944 158.308 45.3661 149.635 45.3661C140.962 45.3661 141.581 57.0944 141.581 57.0944L157.688 57.0944Z" fill="url(#paint0_linear_67_540)"/>
<defs>
<linearGradient id="paint0_linear_67_540" x1="87.3302" y1="33.6379" x2="151.103" y2="121.6" gradientUnits="userSpaceOnUse">
<stop stop-color="#DBF22F"/>
<stop offset="0.505" stop-color="#05D9B2"/>
<stop offset="1" stop-color="#28B6C6"/>
</linearGradient>
</defs>
</svg>
